<svg width="368" height="369" viewBox="0 0 368 369" fill="none" xmlns="http://www.w3.org/2000/svg">
<rect width="368" height="369" fill="#E5E5E5"/>
<rect width="368" height="369" fill="url(#paint0_linear)"/>
<rect width="222" height="81" transform="translate(73 108)" fill="url(#paint1_linear)"/>
<rect width="122" height="76" transform="translate(173 189)" fill="#313131"/>
<rect width="19" height="76" transform="translate(73 189)" fill="#313131"/>
<rect width="19" height="76" transform="translate(175 32)" fill="#313131"/>
<path d="M0 0H19V76H0V0Z" transform="translate(106 189)" fill="#313131"/>
<path d="M33 0H52V76H33V0Z" transform="translate(106 189)" fill="#313131"/>
<rect width="158" height="23" transform="translate(105 137)" fill="#FFD600"/>
<path d="M26.928 52.416C24.944 53.728 22.192 54.384 18.672 54.384C13.84 54.384 9.888 52.88 6.816 49.872C3.744 46.864 2.208 42.832 2.208 37.776C2.208 32.88 3.744 28.896 6.816 25.824C9.92 22.752 13.84 21.216 18.576 21.216C22.032 21.216 24.8 21.808 26.88 22.992V27.84C25.472 27.072 24.192 26.544 23.04 26.256C21.92 25.936 20.48 25.776 18.72 25.776C15.488 25.776 12.784 26.88 10.608 29.088C8.464 31.264 7.392 34.16 7.392 37.776C7.392 41.456 8.464 44.384 10.608 46.56C12.752 48.736 15.584 49.824 19.104 49.824C22.208 49.824 24.816 49.024 26.928 47.424V52.416ZM37.3185 54H32.5665V20.064H37.3185V54ZM62.2841 52.704C60.4921 53.728 58.1241 54.24 55.1801 54.24C51.4041 54.24 48.3961 53.104 46.1561 50.832C43.9161 48.56 42.7961 45.584 42.7961 41.904C42.7961 38 43.8201 34.944 45.8681 32.736C47.9161 30.496 50.5241 29.376 53.6921 29.376C56.7961 29.376 59.2601 30.352 61.0841 32.304C62.9081 34.224 63.8201 37.008 63.8201 40.656C63.8201 41.648 63.7241 42.688 63.5321 43.776H47.5481C47.8681 45.888 48.7641 47.504 50.2361 48.624C51.7081 49.744 53.5641 50.304 55.8041 50.304C58.3961 50.304 60.5561 49.696 62.2841 48.48V52.704ZM53.7881 33.264C52.1881 33.264 50.8121 33.856 49.6601 35.04C48.5081 36.192 47.7881 37.872 47.5001 40.08H59.2601V39.216C59.1961 37.392 58.7001 35.952 57.7721 34.896C56.8441 33.808 55.5161 33.264 53.7881 33.264ZM77.2309 50.496C78.7669 50.496 79.9669 50.08 80.8309 49.248C81.7269 48.384 82.1749 47.264 82.1749 45.888V43.152H78.5269C76.7349 43.152 75.3749 43.504 74.4469 44.208C73.5509 44.912 73.1029 45.808 73.1029 46.896C73.1029 48.016 73.4549 48.896 74.1589 49.536C74.8629 50.176 75.8869 50.496 77.2309 50.496ZM82.3189 51.12C81.0709 53.168 78.8789 54.192 75.7429 54.192C73.4389 54.192 71.5829 53.536 70.1749 52.224C68.7989 50.88 68.1109 49.184 68.1109 47.136C68.1109 44.8 68.9909 42.992 70.7509 41.712C72.5109 40.4 74.9749 39.744 78.1429 39.744H82.1749V38.352C82.1749 36.688 81.7749 35.44 80.9749 34.608C80.1749 33.744 78.8469 33.312 76.9909 33.312C74.3989 33.312 72.0469 34.032 69.9349 35.472V30.912C71.8229 29.824 74.3189 29.28 77.4229 29.28C83.7909 29.28 86.9749 32.368 86.9749 38.544V54H82.3189V51.12ZM113.424 54H108.72V38.64C108.72 36.944 108.288 35.648 107.424 34.752C106.592 33.856 105.472 33.408 104.064 33.408C102.4 33.408 100.976 34.064 99.792 35.376C98.608 36.656 98.016 38.464 98.016 40.8V54H93.312V29.664H98.016V33.84C99.456 30.832 101.984 29.328 105.6 29.328C108 29.328 109.904 30.064 111.312 31.536C112.72 33.008 113.424 35.008 113.424 37.536V54ZM140.697 42.528H136.089V54H131.145V21.648H140.409C144.121 21.648 147.065 22.64 149.241 24.624C151.417 26.576 152.505 29.088 152.505 32.16C152.505 35.232 151.401 37.728 149.193 39.648C147.017 41.568 144.185 42.528 140.697 42.528ZM140.217 25.728H136.089V38.448H140.313C142.649 38.448 144.425 37.872 145.641 36.72C146.889 35.568 147.513 34.048 147.513 32.16C147.513 30.176 146.889 28.608 145.641 27.456C144.393 26.304 142.585 25.728 140.217 25.728ZM177.167 54H172.463V49.824C171.183 52.8 168.655 54.288 164.879 54.288C162.479 54.288 160.575 53.584 159.167 52.176C157.759 50.736 157.055 48.768 157.055 46.272V29.664H161.807V45.12C161.807 46.784 162.207 48.064 163.007 48.96C163.839 49.824 164.975 50.256 166.415 50.256C168.239 50.256 169.695 49.616 170.783 48.336C171.903 47.056 172.463 45.248 172.463 42.912V29.664H177.167V54ZM188.629 54H183.877V20.064H188.629V33.36C190.357 30.672 192.805 29.328 195.973 29.328C199.045 29.328 201.557 30.48 203.509 32.784C205.461 35.088 206.437 38.144 206.437 41.952C206.437 45.376 205.509 48.304 203.653 50.736C201.797 53.136 199.253 54.336 196.021 54.336C192.789 54.336 190.325 52.992 188.629 50.304V54ZM188.629 41.664C188.629 44.544 189.269 46.688 190.549 48.096C191.829 49.504 193.397 50.208 195.253 50.208C197.045 50.208 198.549 49.456 199.765 47.952C200.981 46.416 201.589 44.448 201.589 42.048C201.589 39.296 200.981 37.184 199.765 35.712C198.549 34.208 196.997 33.456 195.109 33.456C193.445 33.456 191.941 34.128 190.597 35.472C189.285 36.816 188.629 38.88 188.629 41.664ZM216.662 54H211.91V20.064H216.662V54ZM228.428 54H223.676V29.664H228.428V54ZM229.004 22.224C229.004 23.024 228.716 23.712 228.14 24.288C227.564 24.864 226.86 25.152 226.028 25.152C225.196 25.152 224.492 24.88 223.916 24.336C223.372 23.76 223.1 23.056 223.1 22.224C223.1 21.392 223.372 20.688 223.916 20.112C224.492 19.536 225.196 19.248 226.028 19.248C226.86 19.248 227.564 19.536 228.14 20.112C228.716 20.688 229.004 21.392 229.004 22.224ZM250.466 47.28C250.466 49.456 249.698 51.168 248.162 52.416C246.626 53.632 244.546 54.24 241.922 54.24C239.042 54.24 236.642 53.76 234.722 52.8V48.336C236.962 49.712 239.282 50.4 241.682 50.4C242.93 50.4 243.89 50.144 244.562 49.632C245.266 49.12 245.618 48.448 245.618 47.616C245.618 46.912 245.346 46.288 244.802 45.744C244.258 45.168 243.698 44.752 243.122 44.496C242.578 44.208 241.634 43.776 240.29 43.2C236.482 41.632 234.578 39.328 234.578 36.288C234.578 34.144 235.378 32.464 236.978 31.248C238.578 30.032 240.578 29.424 242.978 29.424C245.602 29.424 247.65 29.776 249.122 30.48V34.752C247.554 33.824 245.538 33.36 243.074 33.36C241.954 33.36 241.058 33.616 240.386 34.128C239.746 34.64 239.426 35.312 239.426 36.144C239.426 36.368 239.442 36.592 239.474 36.816C239.538 37.008 239.634 37.216 239.762 37.44C239.89 37.632 240.002 37.808 240.098 37.968C240.226 38.096 240.418 38.24 240.674 38.4C240.93 38.56 241.122 38.704 241.25 38.832C241.41 38.928 241.65 39.056 241.97 39.216C242.322 39.376 242.578 39.504 242.738 39.6C242.898 39.664 243.17 39.792 243.554 39.984C243.97 40.144 244.258 40.256 244.418 40.32C246.306 41.152 247.778 42.096 248.834 43.152C249.922 44.176 250.466 45.552 250.466 47.28ZM275.471 54H270.767V38.64C270.767 36.976 270.335 35.696 269.471 34.8C268.639 33.872 267.535 33.408 266.159 33.408C264.559 33.408 263.135 34.016 261.887 35.232C260.671 36.448 260.063 38.304 260.063 40.8V54H255.359V20.064H260.063V33.84C261.439 30.832 263.951 29.328 267.599 29.328C269.967 29.328 271.871 30.064 273.311 31.536C274.751 33.008 275.471 35.056 275.471 37.68V54Z" transform="translate(41 271)" fill="white"/>
<path d="M31.608 78.272C28.776 79.808 25.368 80.576 21.384 80.576C15.912 80.576 11.4 78.848 7.848 75.392C4.296 71.888 2.52 67.376 2.52 61.856C2.616 56.384 4.392 51.872 7.848 48.32C11.304 44.72 16.032 42.92 22.032 42.92C25.728 42.92 28.92 43.616 31.608 45.008V54.008C29.064 52.424 26.232 51.632 23.112 51.632C20.184 51.632 17.808 52.52 15.984 54.296C14.16 56.024 13.224 58.544 13.176 61.856C13.368 65.072 14.328 67.568 16.056 69.344C17.784 71.12 20.064 72.008 22.896 72.008C25.92 72.008 28.824 71.168 31.608 69.488V78.272Z" transform="translate(218 169)" fill="white"/>
<defs>
<linearGradient id="paint0_linear" x2="1" gradientUnits="userSpaceOnUse" gradientTransform="matrix(16.5 855.5 -853.182 16.4553 610.591 -8.22764)">
<stop stop-color="#5B3EAD"/>
<stop offset="1" stop-color="#AD3E58" stop-opacity="0"/>
</linearGradient>
<linearGradient id="paint1_linear" x2="1" gradientUnits="userSpaceOnUse" gradientTransform="translate(222) scale(222 81) rotate(90)">
<stop stop-color="#00A7FF"/>
<stop offset="1" stop-color="#00A7FF" stop-opacity="0"/>
</linearGradient>
</defs>
</svg>
